<?xml version="1.0" standalone="no"?><!DOCTYPE svg PUBLIC "-//W3C//DTD SVG 1.1//EN" "http://www.w3.org/Graphics/SVG/1.1/DTD/svg11.dtd"><svg t="1628047853243" class="icon" viewBox="0 0 1331 1024" version="1.1" xmlns="http://www.w3.org/2000/svg" p-id="4989" xmlns:xlink="http://www.w3.org/1999/xlink" width="259.9609375" height="200"><defs><style type="text/css"></style></defs><path d="M1228.8 1024H102.4a102.656 102.656 0 0 1-102.4-102.4V102.4a102.656 102.656 0 0 1 102.4-102.4h1126.4a102.656 102.656 0 0 1 102.4 102.4v819.2a102.656 102.656 0 0 1-102.4 102.4z m0-921.6H102.4v819.2h1126.4V102.4zM312.32 365.568c1.3824 14.08 4.864 27.904 10.24 40.96l43.52 151.552c0.256 2.7648 1.536 5.3248 3.584 7.168a28.7744 28.7744 0 0 0 3.072 13.824c0-3.584 3.584-7.168 3.584-10.24v-3.584a7.2192 7.2192 0 0 1 3.584-7.168l43.52-147.968c4.1472-13.6192 7.5776-27.4944 10.24-41.472h103.936c-9.728 20.992-13.312 31.232-19.968 48.64l-80.896 206.336c-6.656 20.992-9.728 27.648-13.312 41.472H318.976a134.656 134.656 0 0 0-13.312-41.472L224.768 417.28c-3.0208-7.168-9.728-20.992-19.9168-48.64L312.32 365.568z m370.176 106.496a381.44 381.44 0 0 1 67.072-3.072v-10.752c0-24.064-13.312-34.304-43.52-34.304a47.1552 47.1552 0 0 0-53.76 34.304l-91.136-13.824c6.7072-23.3984 20.8896-43.8784 40.448-58.368A191.8976 191.8976 0 0 1 709.632 358.4a208.4864 208.4864 0 0 1 87.04 17.408c30.5152 17.3568 47.7696 51.1488 44.032 86.016v131.072c-0.768 22.9376 0.256 45.8752 3.072 68.608h-90.624v-20.48a169.728 169.728 0 0 1-94.208 24.064 109.3632 109.3632 0 0 1-80.896-27.648c-17.5616-17.2544-27.136-40.96-26.624-65.536a80.9472 80.9472 0 0 1 33.28-68.608 196.4032 196.4032 0 0 1 97.792-31.232z m-3.584 127.488c19.5072 0.2048 38.5024-5.888 54.272-17.408 9.8816-9.984 15.7696-23.296 16.384-37.376v-13.824a222.7712 222.7712 0 0 0-80.384 10.24 35.072 35.072 0 0 0-27.136 30.72 30.1568 30.1568 0 0 0 36.864 27.648z m211.9168-233.984h94.208v37.888a105.6768 105.6768 0 0 1 94.208-45.056c15.9744-0.512 31.9488 1.9456 47.104 7.168l-23.552 86.016a135.424 135.424 0 0 0-47.104-10.24 69.7856 69.7856 0 0 0-56.832 27.648 49.92 49.92 0 0 0-13.824 40.96v75.776a441.856 441.856 0 0 0 3.584 72.192h-97.792a436.224 436.224 0 0 0 3.584-72.192V437.76a391.3728 391.3728 0 0 0-3.584-72.192z" fill="#307CFB" p-id="4990"></path></svg>